# xmcd CD database file
#
# Track frame offsets:
#	150
#	18712
#	40655
#	61980
#	90932
#	115127
#	134660
#	152302
#	169770
#	193712
#	207945
#	228875
#
# Disc length: 3597 seconds
#
# Revision: 0
# Processed by: cddbd v1.5.2PL0 Copyright (c) Steve Scherf et al.
# Submitted via: CDex 1.70beta3
#
DISCID=940e0b0c
DTITLE=Higher Octave - セイヴ・ジ・オーシャン～ペルシャ湾浄化支援チャリティ・アルバム
DYEAR=1900
DGENRE=New Age
TTITLE0=熱き想い
TTITLE1=ナマスカール
TTITLE2=パッセージ
TTITLE3=ドリーム・ダンサー
TTITLE4=麗しき瞳
TTITLE5=自由への翼
TTITLE6=エアボーン
TTITLE7=デン・パンプー・スタジオ
TTITLE8=ユー・フィール・ソー・グッド
TTITLE9=天使と詩情
TTITLE10=タラ・ローズの子守唄
TTITLE11=大空の彼方に
EXTD=
EXTT0=
EXTT1=
EXTT2=
EXTT3=
EXTT4=
EXTT5=
EXTT6=
EXTT7=
EXTT8=
EXTT9=
EXTT10=
EXTT11=
PLAYORDER=
